# xmcd
#
# Track frame offsets:
# 150
# 23312
# 47213
# 69399
# 90708
# 111140
# 132887
# 152682
# 172137
# 192934
# 212170
# 234037
# 255212
# 274621
# 298092
# 317808
# 338294
#
# Disc length: 4757 seconds
#
# Revision: 0
# Processed by: cddbd v1.5.2PL0 Copyright (c) Steve Scherf et al.
# Submitted via: Audion 3.0.2 (http://www.panic.com/audion/)
#
DISCID=e1129311
DTITLE=Mana - Amar Es Combatir
DYEAR=1900
DGENRE=
TTITLE0=Manda una senal
TTITLE1=Labios compartidos
TTITLE2=Ojala pudiera borrarte
TTITLE3=Arrancame el corazon
TTITLE4=Tengo muchas alas
TTITLE5=Dime Luna
TTITLE6=Bendita tu luz
TTITLE7=Tu me salvaste
TTITLE8=Combatiente
TTITLE9=El viaje
TTITLE10=El Rey tiburon
TTITLE11=Somos mar y arena
TTITLE12=Relax
TTITLE13=
TTITLE14=
TTITLE15=
TTITLE16=
EXTD=
EXTT0=
EXTT1=
EXTT2=
EXTT3=
EXTT4=
EXTT5=
EXTT6=
EXTT7=
EXTT8=
EXTT9=
EXTT10=
EXTT11=
EXTT12=
EXTT13=
EXTT14=
EXTT15=
EXTT16=
PLAYORDER=
